# xmcd
#
# Track frame offsets:
#	150
#	15019
#	29877
#	42304
#	54719
#	76070
#	97250
#	110245
#	123389
#	140689
#	157959
#	173591
#	189133
#	206610
#	224178
#	239719
#	255492
#	284652
#
# Disc length: 4179 seconds
#
# Revision: 0
# Processed by: cddbd v1.5.2PL0 Copyright (c) Steve Scherf et al.
# Submitted via: EasyCDDAExtractor 10.0.2.1
#
DISCID=0e105112
DTITLE=The Daybreak Quartet - Daybreak Quaretet Soundtracks III
DYEAR=2007
DGENRE=Country
TTITLE0=Burdens Are Lifted TRACK
TTITLE1=Burdens Are Lifted TRACK
TTITLE2=Happiness Is The Lord TRACK
TTITLE3=Happiness Is The Lord DEMO
TTITLE4=The Cross Speaks Louder TRACK
TTITLE5=The Cross Speaks Louder DEMO
TTITLE6=Hallelujah To His Wonderful Name TRACK
TTITLE7=Hallelujah To His Wonderful Name DEMO
TTITLE8=Nothing But The Blood TRACK
TTITLE9=Nothing But The Blood DEMO
TTITLE10=Winging My Way Back Home TRACK
TTITLE11=Winging My Way Back Home DEMO
TTITLE12=The Stone Was Rolled Away TRACK
TTITLE13=The Stone Was Rolled Away DEMO
TTITLE14=What A Meeting TRACK
TTITLE15=What A Meeting DEMO
TTITLE16=Cherish That Name Track
TTITLE17=Cherish That Name DEMO
EXTD=
EXTT0=
EXTT1=
EXTT2=
EXTT3=
EXTT4=
EXTT5=
EXTT6=
EXTT7=
EXTT8=
EXTT9=
EXTT10=
EXTT11=
EXTT12=
EXTT13=
EXTT14=
EXTT15=
EXTT16=
EXTT17=
PLAYORDER=
